<?xml version="1.0" encoding="UTF-8" standalone="no"?>
<!-- Created with Inkscape (http://www.inkscape.org/) -->

<svg
   width="1280"
   height="720"
   viewBox="0 0 338.66666 190.5"
   version="1.1"
   id="svg1"
   inkscape:export-filename="bedrocklabs.svg"
   inkscape:export-xdpi="96"
   inkscape:export-ydpi="96"
   xmlns:inkscape="http://www.inkscape.org/namespaces/inkscape"
   xmlns:sodipodi="http://sodipodi.sourceforge.net/DTD/sodipodi-0.dtd"
   xmlns:xlink="http://www.w3.org/1999/xlink"
   xmlns="http://www.w3.org/2000/svg"
   xmlns:svg="http://www.w3.org/2000/svg">
  <sodipodi:namedview
     id="namedview1"
     pagecolor="#ffffff"
     bordercolor="#000000"
     borderopacity="0.25"
     inkscape:showpageshadow="2"
     inkscape:pageopacity="0.0"
     inkscape:pagecheckerboard="0"
     inkscape:deskcolor="#d1d1d1"
     inkscape:document-units="mm" />
  <defs
     id="defs1">
    <linearGradient
       id="linearGradient17"
       inkscape:collect="always">
      <stop
         style="stop-color:#27003b;stop-opacity:1;"
         offset="0"
         id="stop17" />
      <stop
         style="stop-color:#e9009b;stop-opacity:1;"
         offset="1"
         id="stop18" />
    </linearGradient>
    <linearGradient
       id="linearGradient12"
       inkscape:collect="always">
      <stop
         style="stop-color:#8600bc;stop-opacity:1;"
         offset="0"
         id="stop13" />
      <stop
         style="stop-color:#e10000;stop-opacity:0;"
         offset="1"
         id="stop14" />
    </linearGradient>
    <linearGradient
       inkscape:collect="always"
       xlink:href="#linearGradient12"
       id="linearGradient14"
       x1="20.16905"
       y1="95.25"
       x2="318.49762"
       y2="95.25"
       gradientUnits="userSpaceOnUse" />
    <linearGradient
       inkscape:collect="always"
       xlink:href="#linearGradient17"
       id="linearGradient18"
       x1="20.16905"
       y1="95.25"
       x2="318.49762"
       y2="95.25"
       gradientUnits="userSpaceOnUse" />
  </defs>
  <g
     inkscape:label="Capa 1"
     inkscape:groupmode="layer"
     id="layer1">
    <rect
       style="fill:url(#linearGradient18);fill-opacity:1;stroke:url(#linearGradient14);stroke-width:0.232651;stroke-opacity:1"
       id="rect1"
       width="298.09592"
       height="167.35774"
       x="20.285376"
       y="11.571129"
       rx="6" />
    <g
       id="g2"
       transform="translate(2.8763683,17.702031)">
      <path
         style="fill:#ffffff;fill-opacity:1;stroke-width:0.264583"
         d="m 55.162362,69.044279 c 0,0 8.402214,-6.94096 20.092249,-10.959409 11.690038,-4.018449 29.225089,-5.479706 29.225089,-5.479706 l 9.49816,18.630998 -20.092251,7.306273 -3.653137,-7.306273 -14.612545,4.749077 1.826566,8.402214 -20.092251,5.479704 z"
         id="path1" />
      <path
         style="fill:#ffffff;fill-opacity:1;stroke-width:0.264583"
         d="m 58.450183,93.15498 c 0,0 19.726939,-2.191882 29.95572,-4.383764 10.228783,-2.19188 25.937267,-13.151289 25.937267,-13.151289 l 2.5572,10.959409 c 0,0 -13.88192,11.690035 -23.380077,14.612544 -9.498155,2.92251 -33.974169,0 -33.974169,0 z"
         id="path2" />
    </g>
    <path
       style="fill:#34004f;fill-opacity:1;stroke-width:0.206791"
       d="m 63.383643,176.06844 c 12.341062,16.5623 47.023937,15.12509 61.957807,0.85656 4.33742,-4.14417 -6.56695,-9.70768 0.57104,-17.98775 7.13801,-8.28009 81.37317,-30.55063 89.0822,-41.6859 7.70904,-11.13527 18.5588,-56.532941 32.54928,-65.955097 13.99046,-9.422155 27.98094,-26.838867 30.2651,-37.688622 C 280.09323,2.7578759 248.87431,0.26658048 234.69557,4.1854747 222.10562,7.6652384 214.42366,25.313945 206.14358,31.024342 197.8635,36.73474 193.86622,82.703437 182.44543,92.411111 171.02464,102.11879 81.371396,125.81694 73.662358,139.80741 65.953322,153.79789 55.877137,165.99435 63.383643,176.06844 Z"
       id="path3"
       sodipodi:nodetypes="sssssssssss" />
    <path
       d="m 647.41691,451.46007 v -135.36 h 65.28 q 21.888,0 33.792,9.408 12.096,9.408 12.096,25.536 0,11.904 -6.912,20.352 -6.72,8.448 -18.432,11.52 v -3.072 q 9.408,1.728 15.744,6.144 6.336,4.416 9.792,11.328 3.456,6.72 3.456,15.744 0,11.712 -5.76,20.352 -5.76,8.64 -16.512,13.44 -10.56,4.608 -25.344,4.608 z m 33.792,-25.92 h 28.608 q 4.032,0 7.104,-0.576 3.072,-0.576 5.184,-1.728 2.112,-1.152 3.648,-2.88 1.536,-1.92 2.112,-4.224 0.768,-2.496 0.768,-5.568 0,-2.88 -0.768,-5.184 -0.576,-2.496 -2.112,-4.224 -1.536,-1.92 -3.648,-3.072 -2.112,-1.152 -5.184,-1.728 -3.072,-0.576 -7.104,-0.576 h -28.608 z m 0,-55.68 h 25.152 q 9.6,0 14.016,-3.456 4.608,-3.456 4.608,-10.56 0,-7.104 -4.608,-10.368 -4.416,-3.456 -14.016,-3.456 h -25.152 z m 147.38707,83.712 q -17.28,0 -29.952,-5.952 -12.48,-6.144 -19.2,-17.28 -6.72,-11.136 -6.72,-26.304 0,-14.592 6.336,-25.536 6.528,-11.136 17.664,-17.28 11.328,-6.336 25.728,-6.336 14.4,0 24.768,5.952 10.368,5.952 15.936,17.088 5.76,10.944 5.76,25.728 v 7.488 h -67.584 v -16.128 h 42.624 l -3.072,2.496 q 0,-10.368 -4.416,-15.36 -4.416,-5.184 -12.48,-5.184 -5.952,0 -10.368,2.88 -4.224,2.688 -6.528,8.064 -2.304,5.376 -2.304,13.44 v 1.728 q 0,9.024 2.496,14.592 2.688,5.568 8.256,8.256 5.568,2.496 14.016,2.496 7.296,0 15.168,-2.112 8.064,-2.304 14.208,-6.528 l 8.448,22.464 q -7.296,5.184 -17.856,8.256 -10.56,3.072 -20.928,3.072 z m 89.21119,0 q -12.096,0 -21.504,-5.952 -9.216,-5.952 -14.592,-17.088 -5.184,-11.136 -5.184,-26.304 0,-15.552 5.184,-26.496 5.376,-10.944 14.592,-16.896 9.408,-5.952 21.504,-5.952 10.56,0 19.008,4.992 8.448,4.992 11.328,12.864 h -2.112 v -56.64 h 34.176 v 135.36 h -33.408 v -17.088 h 1.728 q -2.688,8.64 -11.328,14.016 -8.448,5.184 -19.392,5.184 z m 10.944,-25.152 q 7.68,0 12.672,-5.76 4.992,-5.76 4.992,-18.432 0,-12.864 -4.992,-18.432 -4.992,-5.76 -12.672,-5.76 -7.872,0 -12.864,5.76 -4.992,5.568 -4.992,18.432 0,12.672 4.992,18.432 4.992,5.76 12.864,5.76 z m 68.47529,23.04 v -94.464 h 33.21604 v 23.232 h -1.92 q 1.92,-11.52 9.6,-17.856 7.872,-6.528 20.544,-7.296 l 9.408,-0.768 1.92,28.8 -18.624,1.728 q -10.176,0.96 -14.784,5.76 -4.608,4.608 -4.608,13.824 v 47.04 z m 126.59824,2.112 q -15.744,0 -27.456,-5.952 -11.712,-5.952 -18.24,-17.088 -6.528,-11.136 -6.528,-26.304 0,-15.36 6.528,-26.304 6.528,-11.136 18.24,-17.088 11.712,-5.952 27.456,-5.952 15.744,0 27.456,5.952 11.712,5.952 18.048,17.088 6.528,10.944 6.528,26.304 0,15.168 -6.528,26.304 -6.336,11.136 -18.048,17.088 -11.712,5.952 -27.456,5.952 z m 0,-25.152 q 7.68,0 12.672,-5.76 4.992,-5.76 4.992,-18.432 0,-12.864 -4.992,-18.432 -4.992,-5.76 -12.672,-5.76 -7.872,0 -12.864,5.76 -4.992,5.568 -4.992,18.432 0,12.672 4.992,18.432 4.992,5.76 12.864,5.76 z m 113.211,25.152 q -15.936,0 -27.84,-5.952 -11.712,-5.952 -18.24,-17.088 -6.528,-11.328 -6.528,-26.496 0,-15.36 6.528,-26.304 6.528,-11.136 18.24,-16.896 11.904,-5.952 27.84,-5.952 9.408,0 18.816,2.496 9.408,2.496 15.168,7.296 l -9.024,23.424 q -4.416,-3.456 -10.368,-5.376 -5.76,-2.112 -10.944,-2.112 -10.176,0 -15.744,6.144 -5.568,5.952 -5.568,17.28 0,11.136 5.568,17.472 5.568,6.336 15.744,6.336 5.184,0 10.944,-1.92 5.952,-2.112 10.368,-5.568 l 9.024,23.424 q -5.76,4.416 -15.168,7.104 -9.408,2.688 -18.816,2.688 z m 41.979,-2.112 v -135.36 h 34.176 v 78.912 h 0.384 l 31.104,-38.016 h 40.128 l -42.24,50.688 v -11.904 l 43.584,55.68 h -40.896 l -31.68,-39.36 h -0.384 v 39.36 z m 139.1422,0 v -135.36 h 35.328 v 105.984 h 60.288 v 29.376 z m 140.0909,2.112 q -10.944,0 -19.392,-4.032 -8.256,-4.032 -13.056,-10.944 -4.608,-7.104 -4.608,-16.128 0,-10.368 5.376,-16.32 5.376,-5.952 17.28,-8.448 11.904,-2.688 31.68,-2.688 h 10.56 v 16.128 h -10.56 q -5.568,0 -9.792,0.576 -4.032,0.576 -6.72,1.92 -2.688,1.152 -4.032,3.072 -1.344,1.92 -1.344,4.416 0,4.416 3.072,7.296 3.264,2.88 9.216,2.88 4.8,0 8.448,-2.112 3.84,-2.112 6.144,-5.76 2.304,-3.84 2.304,-8.832 v -22.272 q 0,-6.912 -3.648,-9.792 -3.456,-2.88 -12.096,-2.88 -7.296,0 -16.128,2.304 -8.832,2.304 -17.28,7.104 l -8.64,-22.464 q 4.992,-3.456 12.288,-6.144 7.488,-2.688 15.744,-4.032 8.448,-1.536 15.552,-1.536 15.744,0 25.92,4.608 10.368,4.416 15.36,13.824 5.184,9.216 5.184,23.808 v 54.336 h -31.872 v -17.856 h 1.152 q -0.96,6.144 -4.416,10.56 -3.456,4.416 -9.024,6.912 -5.568,2.496 -12.672,2.496 z m 135.6753,0 q -10.944,0 -19.584,-5.184 -8.448,-5.376 -11.136,-14.016 h 1.728 v 17.088 h -33.216 v -135.36 h 34.176 v 56.64 h -2.304 q 2.88,-7.872 11.328,-12.864 8.448,-4.992 19.008,-4.992 12.288,0 21.504,5.952 9.408,5.952 14.592,16.896 5.184,10.944 5.184,26.496 0,15.168 -5.184,26.304 -5.184,11.136 -14.592,17.088 -9.216,5.952 -21.504,5.952 z m -10.752,-25.152 q 7.68,0 12.672,-5.76 4.992,-5.76 4.992,-18.432 0,-12.864 -4.992,-18.432 -4.992,-5.76 -12.672,-5.76 -7.872,0 -12.864,5.76 -4.992,5.568 -4.992,18.432 0,12.672 4.992,18.432 4.992,5.76 12.864,5.76 z m 102.4593,25.152 q -8.64,0 -16.704,-1.152 -7.872,-1.152 -14.4,-3.456 -6.528,-2.304 -11.712,-5.568 l 7.872,-22.08 q 4.8,2.688 10.56,4.8 5.952,2.112 12.288,3.264 6.336,1.152 12.288,1.152 7.104,0 10.176,-1.92 3.072,-2.112 3.072,-5.376 0,-2.88 -2.112,-4.416 -1.92,-1.536 -5.568,-2.112 l -21.312,-3.456 q -11.904,-2.112 -18.432,-8.64 -6.528,-6.72 -6.528,-17.472 0,-9.984 5.568,-17.088 5.76,-7.296 15.552,-11.136 9.984,-4.032 22.848,-4.032 6.912,0 13.632,1.152 6.72,0.96 12.864,3.264 6.144,2.112 11.136,5.76 l -8.448,21.696 q -3.648,-2.688 -8.64,-4.608 -4.992,-1.92 -10.368,-3.072 -5.184,-1.344 -9.6,-1.344 -7.872,0 -11.136,2.112 -3.264,2.112 -3.264,5.376 0,2.496 1.728,4.224 1.728,1.536 5.376,2.112 l 21.312,3.648 q 12.288,1.92 18.816,8.448 6.72,6.336 6.72,17.28 0,10.368 -5.376,17.664 -5.376,7.296 -15.168,11.136 -9.792,3.84 -23.04,3.84 z"
       id="text2"
       style="font-weight:900;font-size:192px;line-height:1.2;font-family:'Nunito Sans';-inkscape-font-specification:'Nunito Sans Heavy';letter-spacing:-2.75687px;word-spacing:-23.9199px;white-space:pre;fill:#ffffff"
       transform="matrix(0.13052219,0,0,0.13052219,41.874866,42.178399)"
       aria-label="Bedrock Labs" />
    <path
       d="m 707.33397,446.60433 q -1.46667,0 -2.88,-0.24 -1.41334,-0.24 -2.61334,-0.69333 -1.2,-0.45334 -2.08,-1.06667 l 1.36,-3.81334 q 0.82667,0.53333 1.84,0.93334 1.01334,0.4 2.13334,0.64 1.12,0.21333 2.24,0.21333 1.76,0 2.45334,-0.45333 0.72,-0.48 0.72,-1.17334 0,-0.42667 -0.21334,-0.72 -0.21333,-0.29333 -0.72,-0.50667 -0.48,-0.24 -1.30667,-0.4 l -3.12,-0.66667 q -2.56,-0.53333 -3.81334,-1.86666 -1.25333,-1.33334 -1.25333,-3.44001 0,-1.86667 0.98666,-3.22667 1.01334,-1.38667 2.80001,-2.13334 1.81333,-0.77333 4.16,-0.77333 1.30667,0 2.50667,0.24 1.22667,0.24 2.26667,0.72 1.04,0.45334 1.76001,1.06667 l -1.36001,3.57334 q -1.01333,-0.74667 -2.37333,-1.14667 -1.33334,-0.42667 -2.85334,-0.42667 -0.98667,0 -1.68,0.24 -0.69334,0.21334 -1.06667,0.64 -0.34667,0.42667 -0.34667,0.98667 0,0.56 0.45334,0.96 0.48,0.37334 1.73333,0.64 l 3.09334,0.66667 q 2.58667,0.56 3.86667,1.84 1.28,1.28 1.28,3.33334 0,1.81334 -0.98667,3.2 -0.98666,1.36001 -2.77333,2.10667 -1.78667,0.74667 -4.21334,0.74667 z m 13.04006,-0.29333 v -14.80002 h -5.97334 v -4.00001 h 16.85335 v 4.00001 H 725.2807 V 446.311 Z m 19.70667,0.29333 q -4.10667,0 -6.29334,-2.08 -2.16,-2.08 -2.16,-6.21334 v -10.80002 h 4.90667 v 10.85335 q 0,2.05334 0.90667,3.09334 0.90666,1.04 2.64,1.04 1.70667,0 2.61334,-1.04 0.90666,-1.04 0.90666,-3.09334 v -10.85335 h 4.82668 v 10.80002 q 0,4.13334 -2.13334,6.21334 -2.10667,2.08 -6.21334,2.08 z m 10.26666,-0.29333 v -18.80003 h 7.78668 q 3.25333,0 5.54667,1.12001 2.29334,1.09333 3.49334,3.2 1.22666,2.08 1.22666,5.06667 0,2.98667 -1.22666,5.09334 -1.2,2.10667 -3.49334,3.22667 -2.29334,1.09334 -5.54667,1.09334 z m 4.90667,-3.97334 h 2.56 q 2.80001,0 4.13334,-1.33334 1.36001,-1.36 1.36001,-4.10667 0,-2.77333 -1.36001,-4.08 -1.36,-1.33334 -4.13334,-1.33334 h -2.56 z m 14.69334,3.97334 v -18.80003 h 4.90667 V 446.311 Z m 16.02669,0.29333 q -2.13333,0 -3.89334,-0.69333 -1.76,-0.69334 -3.04,-1.97334 -1.25334,-1.30667 -1.94667,-3.09334 -0.66667,-1.78666 -0.66667,-3.94667 0,-2.18667 0.66667,-3.97334 0.69333,-1.78666 1.94667,-3.06667 1.28,-1.28 3.04,-1.94667 1.76001,-0.69333 3.89334,-0.69333 2.13334,0 3.89334,0.69333 1.76,0.66667 3.01334,1.94667 1.28,1.28001 1.94667,3.06667 0.69333,1.76001 0.69333,3.94668 0,2.21333 -0.69333,4 -0.66667,1.78667 -1.94667,3.09334 -1.25334,1.28 -3.01334,1.97333 -1.76,0.66667 -3.89334,0.66667 z m 0,-4.10667 q 1.41334,0 2.4,-0.66667 0.98667,-0.66667 1.52001,-1.92 0.53333,-1.25334 0.53333,-3.01334 0,-1.76 -0.53333,-3.01333 -0.50667,-1.25334 -1.52001,-1.89334 -0.98666,-0.66667 -2.4,-0.66667 -1.38667,0 -2.4,0.66667 -0.98667,0.64 -1.52,1.89334 -0.53334,1.25333 -0.53334,3.01333 0,1.76 0.50667,3.01334 0.53333,1.25333 1.54667,1.92 1.01333,0.66667 2.4,0.66667 z"
       id="text3"
       style="font-weight:900;font-size:26.6667px;line-height:1.2;font-family:'Nunito Sans';-inkscape-font-specification:'Nunito Sans Heavy';letter-spacing:-1.36px;word-spacing:-11.8px;white-space:pre;fill:#ffffff"
       transform="matrix(0.26458333,0,0,0.26458333,70.140221,-9.8634686)"
       aria-label="STUDIO" />
    <path
       style="fill:#34004f;fill-opacity:1;stroke-width:0.264583"
       d="m 186.49262,59.91144 c 0,0 7.67158,-7.488931 7.12361,-12.603321 -0.54797,-5.114394 -3.65313,-9.315501 -6.57564,-6.210335 -2.92251,3.105169 -0.18266,9.680813 -1.2786,11.690038 -1.09594,2.009224 -2.73985,7.306273 0.73063,7.123618 z"
       id="path4" />
    <path
       style="fill:#34004f;fill-opacity:1;stroke-width:0.264583"
       d="m 243.6642,117.08302 c 0,0 -3.28782,0.73063 -3.65313,5.1144 -0.36532,4.38376 -4.74908,7.12361 -4.38377,9.68081 0.36532,2.55719 2.73986,7.67158 5.66236,3.10516 2.92251,-4.56642 0.18266,-9.68081 1.82657,-10.95941 1.64391,-1.2786 4.93174,-2.00922 3.8358,-3.83579 -1.09595,-1.82657 -0.36532,-4.93173 -3.28783,-3.10517 z"
       id="path5" />
    <path
       d="m 145.76839,163.98471 v -3.48192 h 0.90876 v 2.72627 h 1.55081 v 0.75565 z m 6.75234,0.0543 q -0.40499,0 -0.70626,-0.15311 -0.30127,-0.1531 -0.46919,-0.43956 -0.16793,-0.28645 -0.16793,-0.67663 0,-0.39511 0.16793,-0.67662 0.16792,-0.28646 0.46919,-0.43957 0.30127,-0.1531 0.70626,-0.1531 0.40499,0 0.70626,0.1531 0.30128,0.15311 0.46426,0.43957 0.16792,0.28151 0.16792,0.67662 0,0.39018 -0.16792,0.67663 -0.16298,0.28646 -0.46426,0.43956 -0.30127,0.15311 -0.70626,0.15311 z m 0,-0.647 q 0.19756,0 0.32597,-0.14816 0.12841,-0.14817 0.12841,-0.47414 0,-0.3309 -0.12841,-0.47413 -0.12841,-0.14817 -0.32597,-0.14817 -0.20249,0 -0.3309,0.14817 -0.12841,0.14323 -0.12841,0.47413 0,0.32597 0.12841,0.47414 0.12841,0.14816 0.3309,0.14816 z m 5.30525,0.647 q -0.28152,0 -0.49883,-0.10372 -0.21237,-0.10371 -0.33585,-0.28151 -0.11853,-0.18274 -0.11853,-0.41487 0,-0.2667 0.13829,-0.41981 0.13829,-0.1531 0.4445,-0.21731 0.30621,-0.0691 0.81492,-0.0691 h 0.27164 v 0.41486 h -0.27164 q -0.14323,0 -0.25189,0.0148 -0.10371,0.0148 -0.17286,0.0494 -0.0691,0.0296 -0.10371,0.079 -0.0346,0.0494 -0.0346,0.1136 0,0.11359 0.079,0.18767 0.084,0.0741 0.23706,0.0741 0.12347,0 0.21731,-0.0543 0.0988,-0.0543 0.15805,-0.14817 0.0593,-0.0988 0.0593,-0.22719 v -0.57291 q 0,-0.1778 -0.0938,-0.25188 -0.0889,-0.0741 -0.31115,-0.0741 -0.18768,0 -0.41487,0.0593 -0.22719,0.0593 -0.4445,0.18274 l -0.22225,-0.57785 q 0.12841,-0.0889 0.31609,-0.15804 0.19261,-0.0691 0.40499,-0.10372 0.21731,-0.0395 0.40005,-0.0395 0.40499,0 0.66675,0.11853 0.2667,0.1136 0.39511,0.3556 0.13335,0.23707 0.13335,0.61242 v 1.39771 h -0.81986 v -0.45932 h 0.0296 q -0.0247,0.15805 -0.1136,0.27164 -0.0889,0.1136 -0.23213,0.1778 -0.14322,0.0642 -0.32596,0.0642 z m 5.62628,0 q -0.31115,0 -0.55316,-0.15311 -0.23707,-0.1531 -0.37536,-0.43956 -0.13335,-0.28645 -0.13335,-0.67663 0,-0.40005 0.13335,-0.68156 0.13829,-0.28152 0.37536,-0.43463 0.24201,-0.1531 0.55316,-0.1531 0.27164,0 0.48895,0.12841 0.21731,0.12841 0.29139,0.33091 h -0.0543 v -1.45698 h 0.87913 v 3.48192 h -0.85937 v -0.43956 h 0.0445 q -0.0692,0.22225 -0.2914,0.36054 -0.21731,0.13335 -0.49882,0.13335 z m 0.28151,-0.647 q 0.19756,0 0.32597,-0.14816 0.12841,-0.14817 0.12841,-0.47414 0,-0.3309 -0.12841,-0.47413 -0.12841,-0.14817 -0.32597,-0.14817 -0.20249,0 -0.3309,0.14817 -0.12841,0.14323 -0.12841,0.47413 0,0.32597 0.12841,0.47414 0.12841,0.14816 0.3309,0.14816 z m 4.52491,-2.25707 v -0.79516 h 0.92357 v 0.79516 z m 0.0247,2.84974 v -2.42993 h 0.87912 v 2.42993 z m 4.10509,0 v -2.42993 h 0.85443 v 0.42474 h -0.0543 q 0.11854,-0.23213 0.33585,-0.3556 0.22225,-0.12347 0.50377,-0.12347 0.29139,0 0.47907,0.11359 0.18768,0.10866 0.28152,0.34573 0.0938,0.23212 0.0938,0.58772 v 1.43722 h -0.87912 v -1.40264 q 0,-0.14817 -0.0346,-0.23707 -0.0346,-0.0938 -0.10372,-0.13335 -0.0642,-0.0395 -0.16298,-0.0395 -0.13335,0 -0.23213,0.0593 -0.0988,0.0543 -0.1531,0.15805 -0.0494,0.10372 -0.0494,0.24694 v 1.34832 z m 6.91533,0.94333 q -0.36547,0 -0.6865,-0.0692 -0.31609,-0.0691 -0.54328,-0.22718 l 0.22719,-0.59267 q 0.12841,0.0741 0.28645,0.12841 0.16299,0.0593 0.32597,0.084 0.16298,0.0296 0.30621,0.0296 0.30127,0 0.44944,-0.12841 0.15311,-0.12347 0.15311,-0.39017 v -0.31115 h 0.0395 q -0.0741,0.20743 -0.30127,0.34078 -0.22719,0.12842 -0.49389,0.12842 -0.32597,0 -0.56798,-0.14817 -0.242,-0.15311 -0.38029,-0.42475 -0.13335,-0.27164 -0.13335,-0.63711 0,-0.36548 0.13335,-0.63712 0.13829,-0.27164 0.38029,-0.41981 0.24201,-0.1531 0.56798,-0.1531 0.27657,0 0.49389,0.12841 0.22225,0.12841 0.29633,0.33584 h -0.0395 v -0.40992 h 0.85936 v 2.10396 q 0,0.42475 -0.15804,0.70627 -0.15804,0.28151 -0.46426,0.4198 -0.30621,0.14323 -0.75071,0.14323 z m 0.0346,-1.65453 q 0.21731,0 0.34572,-0.14817 0.12841,-0.14816 0.12841,-0.41486 0,-0.2667 -0.12841,-0.41487 -0.12841,-0.14817 -0.34572,-0.14817 -0.21238,0 -0.34079,0.14817 -0.12841,0.14817 -0.12841,0.41487 0,0.2667 0.12841,0.41486 0.12841,0.14817 0.34079,0.14817 z m 4.5249,0.7112 v -0.89888 h 0.91369 v 0.89888 z m 4.06064,0 v -0.89888 h 0.9137 v 0.89888 z m 4.06065,0 v -0.89888 h 0.91369 v 0.89888 z"
       id="text6"
       style="font-weight:900;font-size:4.93889px;line-height:1.2;font-family:'Nunito Sans';-inkscape-font-specification:'Nunito Sans Heavy';text-align:center;letter-spacing:2.71727px;word-spacing:-3.12208px;text-anchor:middle;fill:#ffffff;stroke-width:0.264583"
       aria-label="Loading..." />
  </g>
</svg>
